<?xml version="1.0" encoding="UTF-8"?>
<svg version="1.1" xmlns="http://www.w3.org/2000/svg" width="216" height="230">
<path d="M0 0 C10.96468581 7.3694623 17.36304684 18.00503604 20.69140625 30.72265625 C21.14839285 33.93614712 21.12214498 37.0635749 21.05859375 40.3046875 C21.86079346 40.27850342 22.66299316 40.25231934 23.48950195 40.2253418 C27.1165008 40.12154809 30.74318778 40.05641446 34.37109375 39.9921875 C35.63373047 39.95029297 36.89636719 39.90839844 38.19726562 39.86523438 C39.40576172 39.84912109 40.61425781 39.83300781 41.859375 39.81640625 C42.97481689 39.79022217 44.09025879 39.76403809 45.23950195 39.73706055 C48.05859375 40.3046875 48.05859375 40.3046875 49.64564514 42.21218872 C51.61436792 46.52110182 51.99171597 50.66963365 52.48486328 55.35229492 C52.60073792 56.36108704 52.71661255 57.36987915 52.83599854 58.40924072 C53.21588834 61.74170041 53.57872172 65.07578386 53.94140625 68.41015625 C54.20273757 70.73329563 54.46511251 73.05631783 54.72848511 75.37922668 C55.41931817 81.49804288 56.09563032 87.61838123 56.76904297 93.73913574 C57.45422958 99.94233436 58.15363189 106.14392788 58.8515625 112.34570312 C59.87196493 121.4330419 60.88737962 130.52091136 61.89111328 139.61010742 C61.99501373 140.54812698 62.09891418 141.48614655 62.20596313 142.45259094 C65.77478865 174.86062168 65.77478865 174.86062168 60.75 182.43359375 C56.37073409 187.27809345 51.48788034 190.26133087 45.05859375 191.3046875 C43.15897799 191.39667592 41.25663043 191.43939532 39.35479736 191.44512939 C38.21660553 191.45083954 37.0784137 191.45654968 35.9057312 191.46243286 C34.66614655 191.46355072 33.42656189 191.46466858 32.14941406 191.46582031 C30.83665497 191.47078522 29.52389587 191.47575012 28.1713562 191.48086548 C24.57612181 191.49395299 20.98090606 191.50042735 17.38565159 191.50487614 C15.13639897 191.50781292 12.88715138 191.51191887 10.63790131 191.51638031 C3.59154703 191.53004597 -3.45479568 191.53971704 -10.50116229 191.5435822 C-18.61846823 191.54806004 -26.73560553 191.56559903 -34.85286021 191.5945828 C-41.13840346 191.61624243 -47.42389942 191.62628877 -53.70947957 191.62762332 C-57.4583913 191.62866834 -61.20714431 191.63451111 -64.95601654 191.65244293 C-69.14233024 191.67207851 -73.32829366 191.66761764 -77.51464844 191.66113281 C-78.74613617 191.6703476 -79.9776239 191.67956238 -81.24642944 191.6890564 C-90.65259194 191.64348382 -98.49932499 190.52618341 -105.50390625 183.89453125 C-110.67057875 178.18030378 -111.10875625 171.0694116 -110.84841919 163.65719604 C-110.61847131 160.81221665 -110.3261969 157.98097594 -110.0078125 155.14453125 C-109.89491379 154.06882874 -109.78201508 152.99312622 -109.66569519 151.88482666 C-109.28947001 148.33599683 -108.89743575 144.78913722 -108.50390625 141.2421875 C-108.23382133 138.74978057 -107.96396916 136.25734841 -107.69433594 133.76489258 C-105.57835398 114.38551613 -103.30146644 95.02409997 -100.95490646 75.67140579 C-100.69152958 73.49320749 -100.43049819 71.31473854 -100.16995239 69.13619995 C-99.68154485 65.05963226 -99.17964293 60.98484292 -98.67578125 56.91015625 C-98.45730782 55.07967743 -98.45730782 55.07967743 -98.23442078 53.21221924 C-98.09357559 52.09313171 -97.95273041 50.97404419 -97.80761719 49.82104492 C-97.6880365 48.84713303 -97.56845581 47.87322113 -97.44525146 46.86979675 C-96.94140625 44.3046875 -96.94140625 44.3046875 -94.94140625 40.3046875 C-85.37140625 40.3046875 -75.80140625 40.3046875 -65.94140625 40.3046875 C-65.94140625 37.6646875 -65.94140625 35.0246875 -65.94140625 32.3046875 C-63.52729853 19.87428193 -57.49703743 8.57592265 -46.94140625 1.3046875 C-32.00646101 -7.50129436 -15.28894026 -8.81195229 0 0 Z M-44.1796875 18.89453125 C-49.17034684 25.72210733 -50.94140625 31.89966588 -50.94140625 40.3046875 C-32.46140625 40.3046875 -13.98140625 40.3046875 5.05859375 40.3046875 C5.05859375 28.72026095 3.37624683 23.70428281 -4.421875 15.515625 C-10.48870669 10.19186262 -17.2409457 8.56996996 -25.2109375 8.9296875 C-32.96766447 9.99498906 -38.8780909 13.14127733 -44.1796875 18.89453125 Z " fill="#FCA731" transform="translate(141.94140625,22.6953125)"/>
<path d="M0 0 C2.7204656 0.75568489 3.73121566 1.22691946 5.25 3.625 C5.68365657 7.32656862 5.61149486 9.0798887 3.52734375 12.22265625 C-3.95605469 20.10583558 -9.55925715 24.09578095 -19.75 28.625 C14.405 29.12 14.405 29.12 49.25 29.625 C51.73900905 38.33653168 53.50150135 48.17949382 49.3125 56.6875 C45.97763307 61.713553 40.87339553 65.73807723 34.96390915 67.18458176 C32.11023691 67.64768102 29.43677785 67.75672674 26.54620361 67.76544189 C25.40801178 67.77115204 24.26981995 67.77686218 23.09713745 67.78274536 C21.8575528 67.78386322 20.61796814 67.78498108 19.34082031 67.78613281 C18.02806122 67.79109772 16.71530212 67.79606262 15.36276245 67.80117798 C11.76752806 67.81426549 8.17231231 67.82073985 4.57705784 67.82518864 C2.32780522 67.82812542 0.07855763 67.83223137 -2.17069244 67.83669281 C-9.21704672 67.85035847 -16.26338943 67.86002954 -23.30975604 67.8638947 C-31.42706198 67.86837254 -39.54419928 67.88591153 -47.66145396 67.9148953 C-53.94699721 67.93655493 -60.23249317 67.94660127 -66.51807332 67.94793582 C-70.26698505 67.94898084 -74.01573806 67.95482361 -77.76461029 67.97275543 C-81.95092399 67.99239101 -86.13688741 67.98793014 -90.32324219 67.98144531 C-91.55472992 67.9906601 -92.78621765 67.99987488 -94.05502319 68.0093689 C-103.46118569 67.96379632 -111.30791874 66.84649591 -118.3125 60.21484375 C-123.71026762 54.2450301 -123.88356966 47.05951264 -123.65234375 39.3828125 C-123.09772144 30.97272144 -123.09772144 30.97272144 -120.75 28.625 C-117.88998413 28.38449097 -117.88998413 28.38449097 -114.18896484 28.39794922 C-113.51567642 28.39765717 -112.842388 28.39736511 -112.1486969 28.39706421 C-109.91931346 28.39845953 -107.69026268 28.41402984 -105.4609375 28.4296875 C-103.91680077 28.43341692 -102.37266167 28.43626423 -100.82852173 28.43826294 C-96.76124557 28.44590501 -92.69411189 28.46555832 -88.62689209 28.4876709 C-84.4778435 28.50811704 -80.32877193 28.51726201 -76.1796875 28.52734375 C-68.03639289 28.54880375 -59.89321416 28.58294651 -51.75 28.625 C-52.6997168 28.17479492 -53.64943359 27.72458984 -54.62792969 27.26074219 C-55.89280374 26.64825216 -57.15743961 26.0352701 -58.421875 25.421875 C-59.35749268 24.98077393 -59.35749268 24.98077393 -60.31201172 24.53076172 C-67.29397947 21.11755861 -72.44853136 16.07720296 -76.75 9.625 C-77.10384949 6.79420408 -77.1420891 5.25669911 -75.625 2.8125 C-72.84708117 1.05315141 -70.98836525 1.25103644 -67.75 1.625 C-65.328125 3.63671875 -65.328125 3.63671875 -63 6.3125 C-57.15081883 12.55988564 -50.07275326 17.31083068 -41.30859375 17.828125 C-28.47196181 18.07681813 -19.53240357 16.56943231 -9.75 7.625 C-8.49136384 6.32077944 -7.2408017 5.00869922 -6 3.6875 C-3.10537353 0.70576671 -3.10537353 0.70576671 0 0 Z " fill="#27BA93" transform="translate(154.75,146.375)"/>
<path d="M0 0 C10.96468581 7.3694623 17.36304684 18.00503604 20.69140625 30.72265625 C21.14839285 33.93614712 21.12214498 37.0635749 21.05859375 40.3046875 C21.86079346 40.27850342 22.66299316 40.25231934 23.48950195 40.2253418 C27.1165008 40.12154809 30.74318778 40.05641446 34.37109375 39.9921875 C35.63373047 39.95029297 36.89636719 39.90839844 38.19726562 39.86523438 C39.40576172 39.84912109 40.61425781 39.83300781 41.859375 39.81640625 C42.97481689 39.79022217 44.09025879 39.76403809 45.23950195 39.73706055 C48.05859375 40.3046875 48.05859375 40.3046875 49.90039062 42.58935547 C50.90296541 44.93982695 51.52102468 46.72316657 51.7890625 49.23828125 C51.86962891 49.97111328 51.95019531 50.70394531 52.03320312 51.45898438 C52.10345703 52.21244141 52.17371094 52.96589844 52.24609375 53.7421875 C52.32794922 54.46083984 52.40980469 55.17949219 52.49414062 55.91992188 C53.23616761 63.12194849 53.05859375 69.9619646 53.05859375 77.3046875 C2.56859375 77.3046875 -47.92140625 77.3046875 -99.94140625 77.3046875 C-99.94140625 69.94998395 -99.48947656 63.23030135 -98.56640625 55.9921875 C-98.44007812 54.92162109 -98.31375 53.85105469 -98.18359375 52.74804688 C-97.99023438 51.20407227 -97.99023438 51.20407227 -97.79296875 49.62890625 C-97.67775879 48.70166748 -97.56254883 47.77442871 -97.44384766 46.8190918 C-96.94140625 44.3046875 -96.94140625 44.3046875 -94.94140625 40.3046875 C-85.37140625 40.3046875 -75.80140625 40.3046875 -65.94140625 40.3046875 C-65.94140625 37.6646875 -65.94140625 35.0246875 -65.94140625 32.3046875 C-63.52729853 19.87428193 -57.49703743 8.57592265 -46.94140625 1.3046875 C-32.00646101 -7.50129436 -15.28894026 -8.81195229 0 0 Z M-44.1796875 18.89453125 C-49.17034684 25.72210733 -50.94140625 31.89966588 -50.94140625 40.3046875 C-32.46140625 40.3046875 -13.98140625 40.3046875 5.05859375 40.3046875 C5.05859375 28.72026095 3.37624683 23.70428281 -4.421875 15.515625 C-10.48870669 10.19186262 -17.2409457 8.56996996 -25.2109375 8.9296875 C-32.96766447 9.99498906 -38.8780909 13.14127733 -44.1796875 18.89453125 Z " fill="#FC434C" transform="translate(141.94140625,22.6953125)"/>
<path d="M0 0 C0.33 0 0.66 0 1 0 C1.33 1.65 1.66 3.3 2 5 C55.46 5 108.92 5 164 5 C168 41 168 41 167 45 C131.855 44.505 131.855 44.505 96 44 C98.3532124 41.6467876 100.53675016 40.75842074 103.5625 39.375 C110.9139097 35.76998178 117.47274171 30.94364768 122 24 C122.41702122 20.9157691 122.41702122 20.9157691 122 18 C120.18522767 15.80454082 120.18522767 15.80454082 117.671875 15.58203125 C113.92841322 16.16763126 112.74837429 17.89111702 110.25 20.6875 C103.08936012 28.20989583 95.64481278 32.42277384 85.1328125 33.3359375 C83.79714017 33.36556789 82.46099708 33.37821849 81.125 33.375 C80.0733667 33.37258301 80.0733667 33.37258301 79.00048828 33.37011719 C73.17013895 33.23248802 68.91127747 32.05496309 64 29 C62.989375 28.4225 61.97875 27.845 60.9375 27.25 C58.2936808 25.224947 56.25940104 23.17597314 54 20.75 C50.91180377 17.53723962 50.91180377 17.53723962 46.625 16.375 C43.85942178 16.79117993 43.85942178 16.79117993 42 19 C41.4780039 22.29301798 41.77391954 23.65541842 43.6171875 26.46484375 C48.89573223 32.24567215 54.03489578 36.42905824 61 40 C61.97259766 40.50853516 61.97259766 40.50853516 62.96484375 41.02734375 C64.29826477 41.70817283 65.64694423 42.35907884 67 43 C67 43.33 67 43.66 67 44 C57.89040835 44.02312545 48.78082674 44.04091612 39.6712122 44.05181217 C35.44168629 44.05704056 31.2121804 44.0641374 26.98266602 44.07543945 C22.90431457 44.08626991 18.82598243 44.09227717 14.74761772 44.09487724 C13.18822361 44.09673121 11.6288306 44.10035127 10.06944466 44.10573006 C7.89270838 44.11294262 5.71605286 44.11399085 3.53930664 44.11352539 C1.67732384 44.11685631 1.67732384 44.11685631 -0.22227478 44.12025452 C-3 44 -3 44 -4 43 C-3.75246643 33.1991322 -2.47406539 23.3657389 -1.4375 13.625 C-1.29731391 12.29168895 -1.15733911 10.95835567 -1.01757812 9.625 C-0.68044718 6.41644339 -0.34122821 3.20812299 0 0 Z " fill="#FDD01E" transform="translate(37,132)"/>
<path d="M0 0 C8.95970579 6.0218975 16.04575442 14.7871393 19.05859375 25.3046875 C19.34596425 28.39509813 19.25627057 31.19127757 19.05859375 34.3046875 C19.38859375 34.3046875 19.71859375 34.3046875 20.05859375 34.3046875 C20.2038748 38.05427967 20.29265656 41.80314855 20.37109375 45.5546875 C20.41298828 46.61816406 20.45488281 47.68164062 20.49804688 48.77734375 C20.6219758 56.6592233 20.6219758 56.6592233 17.69921875 60.0078125 C14.74760374 61.45742224 13.28529896 61.96657575 10.05859375 61.3046875 C7.4516629 59.23206678 6.1936799 58.07159043 5.60791016 54.74609375 C5.62515137 53.79605469 5.64239258 52.84601563 5.66015625 51.8671875 C5.65943115 50.81257324 5.65870605 49.75795898 5.65795898 48.67138672 C5.66641846 47.56037598 5.67487793 46.44936523 5.68359375 45.3046875 C5.4949098 34.22838715 4.69759819 26.71106161 -2.8359375 18.15234375 C-8.58276594 12.60954472 -14.38824288 10.22401061 -22.31640625 9.8671875 C-29.76263097 10.11470744 -36.13449587 12.34067272 -41.75390625 17.3046875 C-51.84403542 28.7783332 -50.85203974 42.85885328 -50.94140625 57.3046875 C-51.60140625 57.3046875 -52.26140625 57.3046875 -52.94140625 57.3046875 C-53.27140625 58.2946875 -53.60140625 59.2846875 -53.94140625 60.3046875 C-56.6501996 61.65908418 -58.95073893 61.36970201 -61.94140625 61.3046875 C-62.60140625 59.9846875 -63.26140625 58.6646875 -63.94140625 57.3046875 C-64.60140625 57.3046875 -65.26140625 57.3046875 -65.94140625 57.3046875 C-66.53000324 37.93758285 -66.89305208 21.42416567 -53.0625 6.2421875 C-38.51668696 -7.39267563 -17.25993889 -9.94795947 0 0 Z " fill="#0E344F" transform="translate(141.94140625,22.6953125)"/>
<path d="M0 0 C2.7204656 0.75568489 3.73121566 1.22691946 5.25 3.625 C5.68365657 7.32656862 5.61149486 9.0798887 3.52734375 12.22265625 C-6.65527006 22.94924942 -17.94049265 30.51645216 -33.19775391 30.96826172 C-47.42182286 31.14958443 -59.05079447 27.45595469 -69.78515625 17.79296875 C-76.55429699 11.19062409 -76.55429699 11.19062409 -77.0625 7.125 C-76.75 4.625 -76.75 4.625 -75.625 2.8125 C-72.84708117 1.05315141 -70.98836525 1.25103644 -67.75 1.625 C-65.328125 3.63671875 -65.328125 3.63671875 -63 6.3125 C-57.15081883 12.55988564 -50.07275326 17.31083068 -41.30859375 17.828125 C-28.47196181 18.07681813 -19.53240357 16.56943231 -9.75 7.625 C-8.49136384 6.32077944 -7.2408017 5.00869922 -6 3.6875 C-3.10537353 0.70576671 -3.10537353 0.70576671 0 0 Z " fill="#12333F" transform="translate(154.75,146.375)"/>
<path d="M0 0 C3 0 3 0 5.625 2 C8.69540316 5.87840399 8.75255485 8.13357866 9 13 C9.99 12.67 10.98 12.34 12 12 C14 14 14 14 14.1953125 16.1640625 C14.17210937 16.97617187 14.14890625 17.78828125 14.125 18.625 C14.10695312 19.44226563 14.08890625 20.25953125 14.0703125 21.1015625 C14.04710937 21.72804688 14.02390625 22.35453125 14 23 C14.33 23 14.66 23 15 23 C15.14528105 26.74959217 15.23406281 30.49846105 15.3125 34.25 C15.35439453 35.31347656 15.39628906 36.37695312 15.43945312 37.47265625 C15.56338205 45.3545358 15.56338205 45.3545358 12.640625 48.703125 C9.68900999 50.15273474 8.22670521 50.66188825 5 50 C2.30172489 47.87443526 1.13163812 46.67880643 0.4699707 43.2668457 C0.45538818 42.24679443 0.44080566 41.22674316 0.42578125 40.17578125 C0.39806641 39.06525391 0.37035156 37.95472656 0.34179688 36.81054688 C0.32729492 35.07901367 0.32729492 35.07901367 0.3125 33.3125 C0.27062259 31.01685669 0.2252473 28.72127358 0.17578125 26.42578125 C0.15898315 24.90078003 0.15898315 24.90078003 0.1418457 23.3449707 C0.26263112 21.04159035 0.26263112 21.04159035 -1 20 C-1.14115161 17.32941149 -1.04247107 14.67567762 -1 12 C-1.66 11.67 -2.32 11.34 -3 11 C-3 9.68 -3 8.36 -3 7 C-3.99 6.67 -4.98 6.34 -6 6 C-5.34 5.67 -4.68 5.34 -4 5 C-3.67 4.01 -3.34 3.02 -3 2 C-2.01 2 -1.02 2 0 2 C0 1.34 0 0.68 0 0 Z " fill="#0D2F4B" transform="translate(147,34)"/>
<path d="M0 0 C2.475 0.99 2.475 0.99 5 2 C5.66 1.34 6.32 0.68 7 0 C7.556875 0.928125 7.556875 0.928125 8.125 1.875 C10.48622906 4.5510596 12.60131652 5.0936844 16 6 C16 6.66 16 7.32 16 8 C16.763125 8.144375 17.52625 8.28875 18.3125 8.4375 C21 9 21 9 24 10 C24 10.66 24 11.32 24 12 C24.5465625 11.835 25.093125 11.67 25.65625 11.5 C28.34889502 10.92556906 30.74772373 10.94081126 33.5 11 C38.87359279 11.06585285 44.07402287 10.66846498 49.40625 10.0234375 C52.21866944 9.99802407 53.63392677 10.53794531 56 12 C55.67 13.32 55.34 14.64 55 16 C53.35 16.33 51.7 16.66 50 17 C50 17.99 50 18.98 50 20 C44.6750412 22.19773993 39.96747336 22.26970696 34.3125 22.1875 C33.45849609 22.18685547 32.60449219 22.18621094 31.72460938 22.18554688 C28.16459314 22.16037787 25.40645355 22.13548452 22 21 C22 20.34 22 19.68 22 19 C21.01 18.67 20.02 18.34 19 18 C19 17.34 19 16.68 19 16 C18.32453125 15.90203125 17.6490625 15.8040625 16.953125 15.703125 C9.72997347 14.49230769 9.72997347 14.49230769 6.3125 12.1875 C5 10 5 10 5.25 7.25 C5.4975 6.5075 5.745 5.765 6 5 C5.01 5 4.02 5 3 5 C2.67 5.99 2.34 6.98 2 8 C0 6 0 6 -0.125 2.875 C-0.08375 1.92625 -0.0425 0.9775 0 0 Z " fill="#06324E" transform="translate(84,155)"/>
<path d="M0 0 C0.33 0 0.66 0 1 0 C1.11576626 9.09408324 0.99695828 18.16268816 0.625 27.25 C0.59414307 28.15451904 0.56328613 29.05903809 0.53149414 29.9909668 C0.4927417 30.844729 0.45398926 31.69849121 0.4140625 32.578125 C0.36693115 33.71362793 0.36693115 33.71362793 0.31884766 34.87207031 C0 37 0 37 -2 41 C26.215 40.505 26.215 40.505 55 40 C54.01 39.67 53.02 39.34 52 39 C52 38.01 52 37.02 52 36 C55.54243452 37.36591169 58.92627929 38.90931484 62.3125 40.625 C63.63701172 41.29402344 63.63701172 41.29402344 64.98828125 41.9765625 C65.65214844 42.31429687 66.31601563 42.65203125 67 43 C67 43.33 67 43.66 67 44 C57.89040835 44.02312545 48.78082674 44.04091612 39.6712122 44.05181217 C35.44168629 44.05704056 31.2121804 44.0641374 26.98266602 44.07543945 C22.90431457 44.08626991 18.82598243 44.09227717 14.74761772 44.09487724 C13.18822361 44.09673121 11.6288306 44.10035127 10.06944466 44.10573006 C7.89270838 44.11294262 5.71605286 44.11399085 3.53930664 44.11352539 C1.67732384 44.11685631 1.67732384 44.11685631 -0.22227478 44.12025452 C-3 44 -3 44 -4 43 C-3.75246643 33.1991322 -2.47406539 23.3657389 -1.4375 13.625 C-1.29731391 12.29168895 -1.15733911 10.95835567 -1.01757812 9.625 C-0.68044718 6.41644339 -0.34122821 3.20812299 0 0 Z " fill="#F1D54C" transform="translate(37,132)"/>
<path d="M0 0 C0.70125 0.144375 1.4025 0.28875 2.125 0.4375 C3.548125 0.7159375 3.548125 0.7159375 5 1 C5.8021846 1.17269409 6.6043692 1.34538818 7.43086243 1.52331543 C12.61357119 2.2155043 17.75772754 2.17011029 22.98120117 2.18945312 C24.18360443 2.19774643 25.38600769 2.20603973 26.62484741 2.21458435 C29.91230775 2.23649037 33.19976045 2.25422359 36.48725295 2.27039146 C39.94012196 2.28862993 43.39294638 2.31304968 46.84577942 2.33703613 C55.62632069 2.39700593 64.40690361 2.44885142 73.1875 2.5 C82.65167185 2.55520966 92.11582276 2.61195162 101.57992917 2.67754889 C105.01023356 2.70109967 108.44052676 2.722687 111.87087059 2.73963928 C115.70456038 2.75915049 119.53817744 2.78429643 123.37182617 2.81054688 C125.05162819 2.8168235 125.05162819 2.8168235 126.7653656 2.82322693 C133.55865388 2.87678942 140.24555392 3.26996173 147 4 C147 4.33 147 4.66 147 5 C128.86720388 5.09349957 110.73447045 5.16400671 92.60148525 5.20724869 C84.18175122 5.22786163 75.7621671 5.25595786 67.3425293 5.30175781 C60.00276289 5.34166455 52.66310507 5.36744204 45.32323319 5.37635398 C41.43786523 5.38156228 37.55280787 5.39377686 33.6675396 5.42292023 C30.00756311 5.45015023 26.34802402 5.45842987 22.68795586 5.45243073 C20.7104216 5.45404904 18.73293456 5.4755321 16.75552368 5.49768066 C9.9541522 5.46619003 5.52096982 5.11212497 0 1 C0 0.67 0 0.34 0 0 Z " fill="#32AD8A" transform="translate(39,208)"/>
<path d="M0 0 C3.11675223 3.14608637 3.43206846 5.65476963 3.4375 10 C3.45683594 11.03125 3.47617188 12.0625 3.49609375 13.125 C2.88218901 16.68274717 1.8487167 17.84188129 -1 20 C-4.5 20.5625 -4.5 20.5625 -8 20 C-10.84287154 17.81317574 -11.83071489 16.17345362 -12.34375 12.6171875 C-12.52006928 7.69494106 -12.36896097 3.8680663 -9 0 C-5.4314543 -1.18951523 -3.60804584 -0.97717908 0 0 Z " fill="#1A333F" transform="translate(152,112)"/>
<path d="M0 0 C1.0209375 0.02900391 1.0209375 0.02900391 2.0625 0.05859375 C3.0834375 0.06052734 3.0834375 0.06052734 4.125 0.0625 C6.74499047 0.64882851 7.56518537 1.2501218 9.0625 3.49609375 C9.4609375 6.74609375 9.4609375 6.74609375 9.4375 10.49609375 C9.44523437 11.73359375 9.45296875 12.97109375 9.4609375 14.24609375 C9.0625 17.49609375 9.0625 17.49609375 7.7890625 19.40625 C5.73093436 20.70538518 4.48744904 20.92900104 2.0625 20.93359375 C1.381875 20.95292969 0.70125 20.97226563 0 20.9921875 C-1.9375 20.49609375 -1.9375 20.49609375 -3.6640625 18.84375 C-5.26360127 15.89490706 -5.33757151 13.83896208 -5.3125 10.49609375 C-5.32023437 9.46484375 -5.32796875 8.43359375 -5.3359375 7.37109375 C-4.82020834 3.64975394 -3.86675688 0.99007686 0 0 Z " fill="#202E35" transform="translate(87.9375,111.50390625)"/>
<path d="M0 0 C2.421875 2.01171875 2.421875 2.01171875 4.75 4.6875 C10.04090811 10.33860609 17.08675858 15.69156957 25.17651367 16.11352539 C26.40978394 16.10567017 26.40978394 16.10567017 27.66796875 16.09765625 C28.56064453 16.09443359 29.45332031 16.09121094 30.37304688 16.08789062 C31.30181641 16.07951172 32.23058594 16.07113281 33.1875 16.0625 C34.12787109 16.05798828 35.06824219 16.05347656 36.03710938 16.04882812 C38.35813712 16.03704626 40.67903644 16.02059558 43 16 C43 16.66 43 17.32 43 18 C38.14270355 18.97299156 33.5499375 19.12038805 28.625 19.0625 C27.88894531 19.05798828 27.15289062 19.05347656 26.39453125 19.04882812 C24.59631842 19.03715142 22.79814803 19.01922011 21 19 C21 18.34 21 17.68 21 17 C20.4225 16.855625 19.845 16.71125 19.25 16.5625 C17.16666667 16.04166667 15.08333333 15.52083333 13 15 C13 14.34 13 13.68 13 13 C12.071875 12.9175 11.14375 12.835 10.1875 12.75 C7 12 7 12 5.125 9.9375 C4.75375 9.298125 4.3825 8.65875 4 8 C2.02 8.99 2.02 8.99 0 10 C-0.66 9.34 -1.32 8.68 -2 8 C-2.042721 9.66611905 -2.04063832 11.33382885 -2 13 C-1.67 13.33 -1.34 13.66 -1 14 C-0.67 13.34 -0.34 12.68 0 12 C0.99 12 1.98 12 3 12 C3 12.99 3 13.98 3 15 C3.66 15.33 4.32 15.66 5 16 C4.34 16.33 3.68 16.66 3 17 C3 17.66 3 18.32 3 19 C3.68707031 19.20496094 4.37414062 19.40992188 5.08203125 19.62109375 C5.98308594 19.89050781 6.88414063 20.15992188 7.8125 20.4375 C8.70582031 20.70433594 9.59914063 20.97117188 10.51953125 21.24609375 C14.77814682 22.54044462 16.48897904 23.29325477 19 27 C8.0187725 25.58514199 0.08745896 19.17783726 -7 11 C-9.15502531 7.76746204 -9.46856135 6.74849077 -9 3 C-6.71835459 -0.67598427 -4.05543889 -0.4683185 0 0 Z " fill="#13333B" transform="translate(87,148)"/>
<path d="M0 0 C0.33 0 0.66 0 1 0 C1 8.25 1 16.5 1 25 C0.34 25 -0.32 25 -1 25 C-1 20.05 -1 15.1 -1 10 C-18.49 10 -35.98 10 -54 10 C-54 15.28 -54 20.56 -54 26 C-54.99 26.33 -55.98 26.66 -57 27 C-57 27.66 -57 28.32 -57 29 C-60.41205596 31.09972674 -63.0300247 31.33083127 -67 31 C-69.375 30 -69.375 30 -71 29 C-71 27.68 -71 26.36 -71 25 C-70.34 25 -69.68 25 -69 25 C-68.34 25.99 -67.68 26.98 -67 28 C-64.04230823 28.50010524 -64.04230823 28.50010524 -61 28 C-59.2488427 26.5833253 -59.2488427 26.5833253 -58 25 C-57.34 25 -56.68 25 -56 25 C-56 19.39 -56 13.78 -56 8 C-37.52 8 -19.04 8 0 8 C0 5.36 0 2.72 0 0 Z " fill="#CD535E" transform="translate(147,55)"/>
<path d="M0 0 C0.33 0 0.66 0 1 0 C1 4.95 1 9.9 1 15 C50.17 15 99.34 15 150 15 C150.33 11.04 150.66 7.08 151 3 C151.33 3 151.66 3 152 3 C152 7.62 152 12.24 152 17 C101.51 17 51.02 17 -1 17 C-1 10.87678086 -0.85617989 5.88623674 0 0 Z " fill="#E75439" transform="translate(43,83)"/>
<path d="M0 0 C0.33 0 0.66 0 1 0 C1.99 10.395 1.99 10.395 3 21 C-20.76 20.67 -44.52 20.34 -69 20 C-66.00585093 17.00585093 -63.14702912 17.03153688 -59.00700378 16.91770935 C-57.34487602 16.94768761 -57.34487602 16.94768761 -55.64916992 16.97827148 C-53.75777534 17.00841591 -53.75777534 17.00841591 -51.82817078 17.03916931 C-50.46226778 17.06636137 -49.09636716 17.09367228 -47.73046875 17.12109375 C-46.32514745 17.14541511 -44.91981779 17.16925764 -43.51448059 17.19264221 C-39.82697987 17.25528269 -36.13962837 17.32440532 -32.45227051 17.39489746 C-28.68504597 17.46576262 -24.91771616 17.53047054 -21.15039062 17.59570312 C-13.7668106 17.72445694 -6.38337742 17.86006178 1 18 C0.83701416 17.07622559 0.67402832 16.15245117 0.50610352 15.20068359 C-0.00848056 11.94636751 -0.09906817 8.91613561 -0.0625 5.625 C-0.05347656 4.56539062 -0.04445313 3.50578125 -0.03515625 2.4140625 C-0.02355469 1.61742187 -0.01195312 0.82078125 0 0 Z " fill="#B3D15D" transform="translate(202,156)"/>
<path d="M0 0 C0.33 0 0.66 0 1 0 C1 1.65 1 3.3 1 5 C21.46 5 41.92 5 63 5 C63 4.34 63 3.68 63 3 C65.35171131 3.59861742 67.6859378 4.26924352 70 5 C70.495 5.99 70.495 5.99 71 7 C61.89040835 7.02312545 52.78082674 7.04091612 43.6712122 7.05181217 C39.44168629 7.05704056 35.2121804 7.0641374 30.98266602 7.07543945 C26.90431457 7.08626991 22.82598243 7.09227717 18.74761772 7.09487724 C17.18822361 7.09673121 15.6288306 7.10035127 14.06944466 7.10573006 C11.89270838 7.11294262 9.71605286 7.11399085 7.53930664 7.11352539 C5.67732384 7.11685631 5.67732384 7.11685631 3.77772522 7.12025452 C1 7 1 7 0 6 C-0.04080783 4.00041636 -0.04254356 1.99954746 0 0 Z " fill="#B3D357" transform="translate(33,169)"/>
<path d="M0 0 C2.10546875 0.1328125 2.10546875 0.1328125 3.8984375 0.63671875 C7.14386031 1.36622087 10.28524214 1.22472396 13.60546875 1.1953125 C14.91515625 1.18628906 16.22484375 1.17726562 17.57421875 1.16796875 C19.3221875 1.15056641 19.3221875 1.15056641 21.10546875 1.1328125 C35.10546875 1.1328125 49.10546875 1.1328125 63.10546875 1.1328125 C63.10546875 1.7928125 63.10546875 2.4528125 63.10546875 3.1328125 C28.12546875 3.1328125 -6.85453125 3.1328125 -42.89453125 3.1328125 C-42.89453125 2.8028125 -42.89453125 2.4728125 -42.89453125 2.1328125 C-41.80922119 2.10775635 -40.72391113 2.0827002 -39.60571289 2.05688477 C-35.59321525 1.96297495 -31.58089743 1.86271483 -27.56860352 1.76049805 C-25.82938837 1.71708677 -24.0901289 1.67541638 -22.35083008 1.63549805 C-19.85614637 1.57794482 -17.36168715 1.5142083 -14.8671875 1.44921875 C-14.08489273 1.43250626 -13.30259796 1.41579376 -12.49659729 1.39857483 C-7.94140799 1.27250594 -4.58561297 0.0172068 0 0 Z " fill="#F5A622" transform="translate(134.89453125,133.8671875)"/>
<path d="M0 0 C4.43265252 1.86638001 5.60582708 3.11705265 7.5625 7.5 C8.34391926 13.5040695 7.53630979 18.82529685 5.5625 24.5 C3.45861431 24.55402274 1.35433286 24.59280256 -0.75 24.625 C-1.92175781 24.64820313 -3.09351562 24.67140625 -4.30078125 24.6953125 C-7.4375 24.5 -7.4375 24.5 -10.4375 22.5 C-10.65857787 19.7114711 -10.71857535 17.15346819 -10.625 14.375 C-10.61146484 13.62089844 -10.59792969 12.86679688 -10.58398438 12.08984375 C-10.54859985 10.22625873 -10.49479167 8.36304022 -10.4375 6.5 C-9.4475 6.17 -8.4575 5.84 -7.4375 5.5 C-7.09407551 4.16923011 -6.76130126 2.83568021 -6.4375 1.5 C-3.4375 -0.5 -3.4375 -0.5 0 0 Z M-7.1640625 5.15234375 C-8.76360127 8.10118669 -8.83757151 10.15713167 -8.8125 13.5 C-8.82023437 14.53125 -8.82796875 15.5625 -8.8359375 16.625 C-8.38807014 19.85667036 -7.78590219 21.25254722 -5.4375 23.5 C-3.50005801 24.09086 -3.50005801 24.09086 -1.4375 23.9375 C-0.756875 23.93621094 -0.07625 23.93492187 0.625 23.93359375 C3.24499047 23.34726524 4.06518537 22.74597195 5.5625 20.5 C6.04040288 17.17534381 6.04040288 17.17534381 5.9375 13.5 C5.94523437 12.2625 5.95296875 11.025 5.9609375 9.75 C5.81865293 6.5742912 5.81865293 6.5742912 4.2890625 4.58984375 C2.23093436 3.29070857 0.98744904 3.06709271 -1.4375 3.0625 C-2.4584375 3.03349609 -2.4584375 3.03349609 -3.5 3.00390625 C-5.58253433 3.36832803 -5.58253433 3.36832803 -7.1640625 5.15234375 Z " fill="#E2A74A" transform="translate(91.4375,108.5)"/>
<path d="M0 0 C1.20970459 0.00523682 2.41940918 0.01047363 3.66577148 0.01586914 C4.97094727 0.0190918 6.27612305 0.02231445 7.62084961 0.02563477 C9.00952213 0.03399138 10.39819401 0.04245634 11.78686523 0.05102539 C13.17944179 0.05603873 14.57202005 0.06060193 15.96459961 0.06469727 C19.38453974 0.07653097 22.80445773 0.09446708 26.22436523 0.11352539 C26.22436523 5.72352539 26.22436523 11.33352539 26.22436523 17.11352539 C24.22436523 14.11352539 24.22436523 14.11352539 24.22436523 2.11352539 C15.64436523 2.11352539 7.06436523 2.11352539 -1.77563477 2.11352539 C-2.10563477 6.07352539 -2.43563477 10.03352539 -2.77563477 14.11352539 C-3.43563477 15.76352539 -4.09563477 17.41352539 -4.77563477 19.11352539 C-5.10563477 19.11352539 -5.43563477 19.11352539 -5.77563477 19.11352539 C-6.00626965 12.88638342 -5.3875818 7.14950224 -3.77563477 1.11352539 C-2.77563477 0.11352539 -2.77563477 0.11352539 0 0 Z " fill="#D7545E" transform="translate(49.775634765625,62.886474609375)"/>
<path d="M0 0 C0.33 0 0.66 0 1 0 C1.98387679 4.05849177 2.03924323 7.83531255 2 12 C3.20329956 11.96072388 3.20329956 11.96072388 4.4309082 11.9206543 C8.05790705 11.81686059 11.68459403 11.75172696 15.3125 11.6875 C16.57513672 11.64560547 17.83777344 11.60371094 19.13867188 11.56054688 C20.34716797 11.54443359 21.55566406 11.52832031 22.80078125 11.51171875 C23.91622314 11.48553467 25.03166504 11.45935059 26.1809082 11.43237305 C29 12 29 12 30.85546875 14.25390625 C31.93742732 16.84986829 32.41158915 18.64217826 32.51171875 21.42578125 C32.54716797 22.22177734 32.58261719 23.01777344 32.61914062 23.83789062 C32.65297852 25.06282227 32.65297852 25.06282227 32.6875 26.3125 C32.72166016 27.14845703 32.75582031 27.98441406 32.79101562 28.84570312 C32.87305461 30.89667772 32.9382151 32.94831538 33 35 C32.34 35 31.68 35 31 35 C30.13580777 32.40742331 29.82419068 30.65962293 29.68359375 27.98828125 C29.62643188 26.96408081 29.62643188 26.96408081 29.56811523 25.91918945 C29.52501221 25.05898193 29.48190918 24.19877441 29.4375 23.3125 C29.293125 20.569375 29.14875 17.82625 29 15 C20.09 14.34 11.18 13.68 2 13 C2 17.62 2 22.24 2 27 C1.67 27 1.34 27 1 27 C0.97494385 26.44014404 0.9498877 25.88028809 0.92407227 25.3034668 C0.80796255 22.76458695 0.6853042 20.22606447 0.5625 17.6875 C0.52318359 16.80642578 0.48386719 15.92535156 0.44335938 15.01757812 C0.40146484 14.17001953 0.35957031 13.32246094 0.31640625 12.44921875 C0.26141968 11.27879028 0.26141968 11.27879028 0.20532227 10.0847168 C0.05874737 7.80670899 0.05874737 7.80670899 -1 5 C-0.5625 2.3125 -0.5625 2.3125 0 0 Z " fill="#B35F6B" transform="translate(161,51)"/>
<path d="M0 0 C0.5775 0.165 1.155 0.33 1.75 0.5 C4.26664369 1.14462031 4.26664369 1.14462031 8 1 C8.08121924 2.60332791 8.13929134 4.20784026 8.1875 5.8125 C8.22230469 6.70582031 8.25710937 7.59914063 8.29296875 8.51953125 C8 11 8 11 6.6484375 12.8359375 C5 14 5 14 2.4375 13.8125 C0 13 0 13 -2 11 C-2.125 8.375 -2.125 8.375 -2 6 C-1.34 6 -0.68 6 0 6 C-0.2784375 5.071875 -0.2784375 5.071875 -0.5625 4.125 C-1 2 -1 2 0 0 Z " fill="#06314F" transform="translate(87,116)"/>
<path d="M0 0 C0 3.26229641 -0.21770324 4.32655486 -2 7 C-3.98 8.32 -5.96 9.64 -8 11 C10.15 11.33 28.3 11.66 47 12 C47 10.35 47 8.7 47 7 C47.33 7 47.66 7 48 7 C48 8.98 48 10.96 48 13 C27.21 13 6.42 13 -15 13 C-13.76774269 9.30322806 -12.29339452 8.94221509 -8.98828125 7.18359375 C-5.65605671 5.19997089 -2.85684233 2.6050234 0 0 Z " fill="#EDD42D" transform="translate(155,161)"/>
<path d="M0 0 C0.495 0.99 0.495 0.99 1 2 C0.09894531 2.24105469 -0.80210937 2.48210937 -1.73046875 2.73046875 C-5.30368969 4.11792013 -6.78713587 5.48276053 -9.3125 8.3125 C-16.08244161 15.38964905 -24.08334985 19.89592935 -34.078125 20.265625 C-35.46874993 20.27085291 -36.85945237 20.26556583 -38.25 20.25 C-39.30960938 20.26160156 -39.30960938 20.26160156 -40.390625 20.2734375 C-44.13543373 20.25925262 -45.80915344 20.12723104 -49 18 C-42.07 18 -35.14 18 -28 18 C-28 17.34 -28 16.68 -28 16 C-27.31292969 15.81824219 -26.62585938 15.63648438 -25.91796875 15.44921875 C-24.56638672 15.07216797 -24.56638672 15.07216797 -23.1875 14.6875 C-22.29417969 14.44386719 -21.40085938 14.20023438 -20.48046875 13.94921875 C-17.92052162 12.96958544 -16.8341056 11.96629339 -15 10 C-14.34 10 -13.68 10 -13 10 C-13.495 8.515 -13.495 8.515 -14 7 C-12.68 7 -11.36 7 -10 7 C-10 5.68 -10 4.36 -10 3 C-8.68 3 -7.36 3 -6 3 C-6 2.34 -6 1.68 -6 1 C-4.02 0.67 -2.04 0.34 0 0 Z " fill="#E2CE47" transform="translate(156,145)"/>
<path d="M0 0 C3.59883645 0.26902445 5.45103216 0.43397685 8.01171875 3.07421875 C8.56472656 3.93660156 9.11773437 4.79898438 9.6875 5.6875 C10.55955078 7.03908203 10.55955078 7.03908203 11.44921875 8.41796875 C14.79638009 13.99095023 14.79638009 13.99095023 16 17 C15.67 17.66 15.34 18.32 15 19 C12.9375 19.625 12.9375 19.625 11 20 C10.95875 18.783125 10.9175 17.56625 10.875 16.3125 C10.46800363 12.78728525 9.68983267 11.24719867 6.9375 9 C5.968125 8.34 4.99875 7.68 4 7 C4.33 7.99 4.66 8.98 5 10 C2.5625 9.375 2.5625 9.375 0 8 C-1.47368421 2.94736842 -1.47368421 2.94736842 0 0 Z " fill="#12354E" transform="translate(144,28)"/>
<path d="M0 0 C4.29612117 -0.50542602 6.34891561 -0.45714436 9.9375 2.0625 C13.18539931 6.54050071 12.61130922 12.25318406 12.6640625 17.5390625 C12 21 12 21 9.76171875 23.4453125 C6.86578407 25.07555579 5.45495265 25.4450718 2.1875 25.25 C1.39730469 25.21390625 0.60710937 25.1778125 -0.20703125 25.140625 C-1.09455078 25.07101563 -1.09455078 25.07101563 -2 25 C-2 24.01 -2 23.02 -2 22 C-2.66 22 -3.32 22 -4 22 C-5.40248912 19.19502177 -5.16979056 16.81498635 -5.1875 13.6875 C-5.20876953 11.99173828 -5.20876953 11.99173828 -5.23046875 10.26171875 C-5.00480137 7.06795157 -4.36342654 4.8723571 -3 2 C-2.01 2 -1.02 2 0 2 C0 1.34 0 0.68 0 0 Z M-3 5 C-4.81208456 10.43625368 -5.02063593 15.95872813 -2.4375 21.125 C-0.0377473 23.2789 -0.0377473 23.2789 3.5 23.5625 C7.57866406 22.90700042 8.50791241 22.20487823 11 19 C11.8092238 14.94271928 11.65095835 11.07822627 11 7 C8.99657789 3.65702801 8.99657789 3.65702801 6 2 C1.70558202 2 0.37867647 2.53447933 -3 5 Z " fill="#DEAA50" transform="translate(144,109)"/>
<path d="M0 0 C0.33 0 0.66 0 1 0 C1.01458252 0.64549805 1.02916504 1.29099609 1.04418945 1.95605469 C1.1187787 4.88796573 1.2154024 7.81875165 1.3125 10.75 C1.33505859 11.76578125 1.35761719 12.7815625 1.38085938 13.828125 C1.41630859 14.8078125 1.45175781 15.7875 1.48828125 16.796875 C1.51446533 17.69760742 1.54064941 18.59833984 1.56762695 19.52636719 C2.10250999 22.58646594 2.6532438 23.9373802 5 26 C7.31 26 9.62 26 12 26 C12 19.73 12 13.46 12 7 C12.99 7 13.98 7 15 7 C15 12.94 15 18.88 15 25 C14.34 25 13.68 25 13 25 C12.67 25.99 12.34 26.98 12 28 C9.29120665 29.35439668 6.99066732 29.06501451 4 29 C3.34 27.68 2.68 26.36 2 25 C1.34 25 0.68 25 0 25 C0 16.75 0 8.5 0 0 Z " fill="#39263F" transform="translate(76,55)"/>
<path d="M0 0 C0.63615234 0.56267578 0.63615234 0.56267578 1.28515625 1.13671875 C11.18979725 9.77879013 19.02359165 14.56946216 32.5 14.1875 C33.4178125 14.17396484 34.335625 14.16042969 35.28125 14.14648438 C37.52146803 14.11148097 39.76040594 14.06238869 42 14 C42 14.66 42 15.32 42 16 C37.14270355 16.97299156 32.5499375 17.12038805 27.625 17.0625 C26.88894531 17.05798828 26.15289062 17.05347656 25.39453125 17.04882812 C23.59631842 17.03715142 21.79814803 17.01922011 20 17 C20 16.34 20 15.68 20 15 C19.4225 14.855625 18.845 14.71125 18.25 14.5625 C16.16666667 14.04166667 14.08333333 13.52083333 12 13 C12 12.34 12 11.68 12 11 C11.13375 11 10.2675 11 9.375 11 C4.5233571 9.56247618 2.47526309 6.29221152 0 2 C0 1.34 0 0.68 0 0 Z " fill="#2B3A26" transform="translate(88,150)"/>
<path d="M0 0 C0.99 0 1.98 0 3 0 C3.33 1.65 3.66 3.3 4 5 C4.66 5 5.32 5 6 5 C6.20625 5.721875 6.4125 6.44375 6.625 7.1875 C8.45248163 10.9255306 10.70438806 12.49246917 14 15 C13.01 15.495 13.01 15.495 12 16 C10.74839762 14.91851833 9.49879619 13.83472078 8.25 12.75 C7.51523438 12.11449219 6.78046875 11.47898438 6.0234375 10.82421875 C4 9 4 9 1.875 6.5625 C0.00090047 4.71264486 0.00090047 4.71264486 -3.125 4.625 C-6.12575284 4.719279 -6.12575284 4.719279 -8 7 C-8.54437441 10.37398725 -8.25208462 11.64606869 -6.25 14.45703125 C-5.13625 15.62298828 -5.13625 15.62298828 -4 16.8125 C-3.2575 17.60269531 -2.515 18.39289063 -1.75 19.20703125 C-1.1725 19.79871094 -0.595 20.39039063 0 21 C-3 21 -3 21 -4.82421875 19.49609375 C-9.86289727 13.92925187 -9.86289727 13.92925187 -10.5625 9.1875 C-10 6 -10 6 -8 3 C-5.67182036 2.63239269 -3.3381615 2.29758419 -1 2 C-0.67 1.34 -0.34 0.68 0 0 Z " fill="#D8CB51" transform="translate(87,144)"/>
<path d="M0 0 C0.33 0 0.66 0 1 0 C1 4.95 1 9.9 1 15 C18.16 15.33 35.32 15.66 53 16 C53 16.33 53 16.66 53 17 C35.18 17 17.36 17 -1 17 C-1 10.87678086 -0.85617989 5.88623674 0 0 Z " fill="#E65A46" transform="translate(43,83)"/>
<path d="M0 0 C5.61 0 11.22 0 17 0 C17 0.33 17 0.66 17 1 C11.72 1 6.44 1 1 1 C1 6.61 1 12.22 1 18 C0.01 18 -0.98 18 -2 18 C-2.33 18.99 -2.66 19.98 -3 21 C-9.435 21.495 -9.435 21.495 -16 22 C-15.67 20.02 -15.34 18.04 -15 16 C-14.484375 16.515625 -13.96875 17.03125 -13.4375 17.5625 C-10.96004737 19.30993554 -10.96004737 19.30993554 -7.4375 18.9375 C-4.05562406 18.30966956 -4.05562406 18.30966956 -2.328125 16.39453125 C-0.52865193 13.15018715 -0.48327526 10.43874572 -0.3125 6.75 C-0.1578125 3.40875 -0.1578125 3.40875 0 0 Z " fill="#E24C58" transform="translate(163,64)"/>
<path d="M0 0 C0.66 0 1.32 0 2 0 C2.90570419 6.89618858 3.1222984 13.61208545 3.0625 20.5625 C3.05798828 21.57119141 3.05347656 22.57988281 3.04882812 23.61914062 C3.03716769 26.07949147 3.02080378 28.53971239 3 31 C2.67 31 2.34 31 2 31 C-0.06142435 20.58244479 -0.21367504 10.57691426 0 0 Z " fill="#F3D44B" transform="translate(199,137)"/>
<path d="M0 0 C0.33 0 0.66 0 1 0 C1 5.28 1 10.56 1 16 C0.34 16 -0.32 16 -1 16 C-1 16.66 -1 17.32 -1 18 C-4.41205596 20.09972674 -7.0300247 20.33083127 -11 20 C-13.375 19 -13.375 19 -15 18 C-15 16.68 -15 15.36 -15 14 C-14.34 14 -13.68 14 -13 14 C-12.01 15.485 -12.01 15.485 -11 17 C-8.04230823 17.50010524 -8.04230823 17.50010524 -5 17 C-3.2488427 15.5833253 -3.2488427 15.5833253 -2 14 C-1.34 14 -0.68 14 0 14 C0 9.38 0 4.76 0 0 Z " fill="#CD4C5F" transform="translate(91,66)"/>
<path d="M0 0 C0.6290625 0.16242188 1.258125 0.32484375 1.90625 0.4921875 C6.11842114 1.18357923 10.2392084 1.14457485 14.5 1.125 C15.34175781 1.12886719 16.18351562 1.13273438 17.05078125 1.13671875 C21.16268987 1.1302433 24.99018972 1.03531987 29 0 C29 0.66 29 1.32 29 2 C24.05586159 4.64381296 19.13199976 4.22504028 13.6875 4.125 C12.75615234 4.11597656 11.82480469 4.10695312 10.86523438 4.09765625 C8.5765564 4.07418263 6.28841328 4.04134729 4 4 C4 3.34 4 2.68 4 2 C2.68 2 1.36 2 0 2 C0 1.34 0 0.68 0 0 Z " fill="#38AB95" transform="translate(104,175)"/>
<path d="M0 0 C4.05952843 0.45105871 6.40226443 0.75283053 9 4 C9.66 4.66 10.32 5.32 11 6 C11 7.32 11 8.64 11 10 C11.99 10.33 12.98 10.66 14 11 C13.67 12.32 13.34 13.64 13 15 C12.484375 14.34 11.96875 13.68 11.4375 13 C7.80007497 8.52316919 4.08092611 4.08092611 0 0 Z " fill="#2E4658" transform="translate(133,35)"/>
<path d="M0 0 C0.33 0 0.66 0 1 0 C1.01458252 0.64549805 1.02916504 1.29099609 1.04418945 1.95605469 C1.1187787 4.88796573 1.2154024 7.81875165 1.3125 10.75 C1.33505859 11.76578125 1.35761719 12.7815625 1.38085938 13.828125 C1.41630859 14.8078125 1.45175781 15.7875 1.48828125 16.796875 C1.51446533 17.69760742 1.54064941 18.59833984 1.56762695 19.52636719 C2.07213998 22.41271724 3.17213801 23.75902235 5 26 C5 26.66 5 27.32 5 28 C6.65 28 8.3 28 10 28 C10 28.33 10 28.66 10 29 C8.02 29 6.04 29 4 29 C3.34 27.68 2.68 26.36 2 25 C1.34 25 0.68 25 0 25 C0 16.75 0 8.5 0 0 Z " fill="#4E374B" transform="translate(76,55)"/>
<path d="M0 0 C3.83520308 3.28731693 6.32465344 7.25147171 8 12 C7.67 12.66 7.34 13.32 7 14 C4.9375 14.625 4.9375 14.625 3 15 C2.896875 13.741875 2.79375 12.48375 2.6875 11.1875 C2.27278359 7.66550539 1.63718179 6.39743799 -1 4 C-0.6875 1.8125 -0.6875 1.8125 0 0 Z " fill="#31475A" transform="translate(152,33)"/>
<path d="M0 0 C0.66 0 1.32 0 2 0 C1.96519531 1.44632812 1.96519531 1.44632812 1.9296875 2.921875 C1.91164063 4.18515625 1.89359375 5.4484375 1.875 6.75 C1.85179688 8.00296875 1.82859375 9.2559375 1.8046875 10.546875 C1.98462698 13.72820492 2.31001418 15.36521896 4 18 C2.35 17.67 0.7 17.34 -1 17 C-1.02684679 14.35409986 -1.04676357 11.70846904 -1.0625 9.0625 C-1.07087891 8.30775391 -1.07925781 7.55300781 -1.08789062 6.77539062 C-1.09652441 4.85005687 -1.05224333 2.92464419 -1 1 C-0.67 0.67 -0.34 0.34 0 0 Z " fill="#E1AA50" transform="translate(82,114)"/>
<path d="M0 0 C0 3.26229641 -0.21770324 4.32655486 -2 7 C-6.18429405 10.30851158 -9.91040211 11.77849651 -15 13 C-13.76774269 9.30322806 -12.29339452 8.94221509 -8.98828125 7.18359375 C-5.65605671 5.19997089 -2.85684233 2.6050234 0 0 Z " fill="#E0CD46" transform="translate(155,161)"/>
<path d="M0 0 C0.99 0 1.98 0 3 0 C3.33 1.65 3.66 3.3 4 5 C4.66 5 5.32 5 6 5 C6.20625 5.721875 6.4125 6.44375 6.625 7.1875 C8.45248163 10.9255306 10.70438806 12.49246917 14 15 C13.01 15.495 13.01 15.495 12 16 C3.618683 9.09188361 3.618683 9.09188361 1 4 C0.34 3.34 -0.32 2.68 -1 2 C-0.67 1.34 -0.34 0.68 0 0 Z " fill="#E8CE3C" transform="translate(87,144)"/>
<path d="M0 0 C1.32 0.33 2.64 0.66 4 1 C4 1.66 4 2.32 4 3 C5.65 2.01 7.3 1.02 9 0 C9 0.66 9 1.32 9 2 C9.99 2 10.98 2 12 2 C12 2.66 12 3.32 12 4 C10.68 4.33 9.36 4.66 8 5 C8.66 5 9.32 5 10 5 C10 5.99 10 6.98 10 8 C5.74508335 7.52723148 3.77457155 5.07452523 1 2 C0.67 1.34 0.34 0.68 0 0 Z " fill="#F1D12B" transform="translate(95,154)"/>
<path d="M0 0 C1.32 0 2.64 0 4 0 C4 0.66 4 1.32 4 2 C3.34 2 2.68 2 2 2 C1.87625 2.61875 1.7525 3.2375 1.625 3.875 C1 6 1 6 -1 8 C-1.99 8 -2.98 8 -4 8 C-4 8.66 -4 9.32 -4 10 C-4.66 10 -5.32 10 -6 10 C-4.63330748 6.01381348 -2.94888215 3.03561398 0 0 Z " fill="#253F51" transform="translate(88,30)"/>
<path d="M0 0 C2.20435037 0.73478346 4.40815273 1.47071987 6.609375 2.21484375 C8.5150508 2.84072747 10.44235247 3.40065346 12.375 3.9375 C15.33837829 5.13696264 16.37561578 6.29269297 18 9 C13.46900325 8.45628039 10.16327397 7.28697545 6.1875 5.0625 C5.23230469 4.53785156 4.27710937 4.01320312 3.29296875 3.47265625 C1 2 1 2 0 0 Z " fill="#1E3232" transform="translate(88,166)"/>
<path d="M0 0 C0.66 0 1.32 0 2 0 C2.92092281 4.65537356 3.12205997 9.14685433 3.0625 13.875 C3.05798828 14.56335938 3.05347656 15.25171875 3.04882812 15.9609375 C3.03716336 17.64066335 3.01923271 19.32034375 3 21 C2.67 21 2.34 21 2 21 C1.66034526 18.81347261 1.32857523 16.62571975 1 14.4375 C0.814375 13.21933594 0.62875 12.00117188 0.4375 10.74609375 C0.01444923 7.12372152 -0.07501425 3.64287954 0 0 Z " fill="#4FB699" transform="translate(203,177)"/>
<path d="M0 0 C4.75 1.875 4.75 1.875 7 3 C7 3.99 7 4.98 7 6 C1.72 6 -3.56 6 -9 6 C-9 5.67 -9 5.34 -9 5 C-3.06 4.505 -3.06 4.505 3 4 C2.01 3.67 1.02 3.34 0 3 C0 2.01 0 1.02 0 0 Z " fill="#E4D136" transform="translate(89,168)"/>
<path d="M0 0 C0.515625 0.515625 1.03125 1.03125 1.5625 1.5625 C5.02356361 3.60364008 7.17371017 2.90439578 11 2 C11.99 1.34 12.98 0.68 14 0 C13.34 1.65 12.68 3.3 12 5 C5.565 5.495 5.565 5.495 -1 6 C-0.67 4.02 -0.34 2.04 0 0 Z " fill="#C94956" transform="translate(148,80)"/>
<path d="M0 0 C0.33 0 0.66 0 1 0 C1.02701408 2.10409639 1.04640223 4.20829178 1.0625 6.3125 C1.07410156 7.48425781 1.08570312 8.65601562 1.09765625 9.86328125 C1 13 1 13 0 16 C-4.29 16 -8.58 16 -13 16 C-13 15.67 -13 15.34 -13 15 C-11.95199219 14.92652344 -11.95199219 14.92652344 -10.8828125 14.8515625 C-9.97273438 14.77679688 -9.06265625 14.70203125 -8.125 14.625 C-7.22007813 14.55539063 -6.31515625 14.48578125 -5.3828125 14.4140625 C-2.82058097 14.20431868 -2.82058097 14.20431868 -1 12 C-0.53603307 9.10776497 -0.53603307 9.10776497 -0.375 5.875 C-0.30023438 4.77929688 -0.22546875 3.68359375 -0.1484375 2.5546875 C-0.09945312 1.71164063 -0.05046875 0.86859375 0 0 Z " fill="#B28C47" transform="translate(97,117)"/>
<path d="M0 0 C0.33 0 0.66 0 1 0 C1.05449838 1.72880982 1.09301688 3.45812712 1.125 5.1875 C1.14820313 6.15042969 1.17140625 7.11335938 1.1953125 8.10546875 C0.9913544 11.12812778 0.26874632 13.26769985 -1 16 C-1.33 16 -1.66 16 -2 16 C-2.08997924 10.87118304 -1.93119789 6.0698552 -1 1 C-0.67 0.67 -0.34 0.34 0 0 Z " fill="#DE6269" transform="translate(46,66)"/>
<path d="M0 0 C-4.28101487 3.23362094 -7.68240261 3.2422378 -12.8125 2.6875 C-13.50537109 2.62626953 -14.19824219 2.56503906 -14.91210938 2.50195312 C-16.60949822 2.34977344 -18.30501549 2.17696065 -20 2 C-20 1.67 -20 1.34 -20 1 C-19.02417969 0.93941406 -18.04835937 0.87882813 -17.04296875 0.81640625 C-15.77066406 0.73261719 -14.49835938 0.64882812 -13.1875 0.5625 C-11.92292969 0.48128906 -10.65835938 0.40007812 -9.35546875 0.31640625 C-1.323049 -0.44101633 -1.323049 -0.44101633 0 0 Z " fill="#46B797" transform="translate(197,210)"/>
<path d="M0 0 C1.05767578 0.21462891 1.05767578 0.21462891 2.13671875 0.43359375 C5.02411601 1.00477056 7.91609386 1.53905311 10.8125 2.0625 C11.78832031 2.23910156 12.76414062 2.41570312 13.76953125 2.59765625 C14.50558594 2.73042969 15.24164063 2.86320313 16 3 C16 3.33 16 3.66 16 4 C11.11682489 5.01871227 7.38456255 5.65965743 2.9375 3.0625 C1.968125 2.381875 0.99875 1.70125 0 1 C0 0.67 0 0.34 0 0 Z " fill="#49B796" transform="translate(39,208)"/>
<path d="M0 0 C-1.95330868 1.03041513 -3.91281528 2.0490893 -5.875 3.0625 C-6.96554688 3.63097656 -8.05609375 4.19945312 -9.1796875 4.78515625 C-10.11039063 5.18605469 -11.04109375 5.58695313 -12 6 C-12.66 5.67 -13.32 5.34 -14 5 C-13.67 4.01 -13.34 3.02 -13 2 C-9.625 0.875 -9.625 0.875 -6 0 C-3 -1 -3 -1 0 0 Z " fill="#21392D" transform="translate(147,169)"/>
<path d="M0 0 C0.66 0 1.32 0 2 0 C3.3271261 3.9813783 3.06915913 7.85045227 3 12 C2.34 12 1.68 12 1 12 C0.03929566 9.11788698 -0.10581883 7.30149956 -0.0625 4.3125 C-0.05347656 3.50425781 -0.04445312 2.69601563 -0.03515625 1.86328125 C-0.02355469 1.24839844 -0.01195312 0.63351563 0 0 Z " fill="#E1555D" transform="translate(191,74)"/>
<path d="M0 0 C0.33 0 0.66 0 1 0 C0.88617347 1.95901454 0.75858875 3.9172338 0.625 5.875 C0.55539063 6.96554688 0.48578125 8.05609375 0.4140625 9.1796875 C0 12 0 12 -2 14 C-3.55577239 8.34264585 -2.24281523 5.20333134 0 0 Z " fill="#2C4355" transform="translate(80,42)"/>
<path d="M0 0 C1.32 0 2.64 0 4 0 C4.08114106 1.77007714 4.13925505 3.54122098 4.1875 5.3125 C4.22230469 6.29863281 4.25710937 7.28476563 4.29296875 8.30078125 C4 11 4 11 2.48828125 12.85546875 C1.99714844 13.23316406 1.50601563 13.61085937 1 14 C0.34 13.67 -0.32 13.34 -1 13 C-0.505 12.46375 -0.01 11.9275 0.5 11.375 C2.41127245 8.34881863 2.37478243 6.52295483 2 3 C1.34 2.01 0.68 1.02 0 0 Z " fill="#DECB48" transform="translate(157,147)"/>
<path d="M0 0 C0.78375 0.04125 1.5675 0.0825 2.375 0.125 C1.39933888 1.29459987 0.419375 2.46061177 -0.5625 3.625 C-1.10777344 4.2746875 -1.65304688 4.924375 -2.21484375 5.59375 C-2.68019531 6.0990625 -3.14554687 6.604375 -3.625 7.125 C-3.955 7.125 -4.285 7.125 -4.625 7.125 C-4.75 4.75 -4.75 4.75 -4.625 2.125 C-2.625 0.125 -2.625 0.125 0 0 Z " fill="#415669" transform="translate(100.625,36.875)"/>
<path d="M0 0 C0 0.66 0 1.32 0 2 C-3.41831915 4.5393228 -5.75776898 5.3636198 -10 5 C-7.31217681 1.88778367 -4.19734673 0 0 0 Z " fill="#415263" transform="translate(107,19)"/>
<path d="M0 0 C0.33 0 0.66 0 1 0 C1.08121924 1.60332791 1.13929134 3.20784026 1.1875 4.8125 C1.23970703 6.15248047 1.23970703 6.15248047 1.29296875 7.51953125 C0.95081002 10.41647515 0.24606427 11.22555028 -2 13 C-2.042721 11.33388095 -2.04063832 9.66617115 -2 8 C-1.67 7.67 -1.34 7.34 -1 7 C-0.63239269 4.67182036 -0.29758419 2.3381615 0 0 Z " fill="#F1A53D" transform="translate(40,124)"/>
<path d="M0 0 C0.66 0 1.32 0 2 0 C2.66 1.98 3.32 3.96 4 6 C2.35 6.33 0.7 6.66 -1 7 C-0.67 4.69 -0.34 2.38 0 0 Z " fill="#294155" transform="translate(156,41)"/>
<path d="M0 0 C0.66 0 1.32 0 2 0 C2 2.97 2 5.94 2 9 C0 8 0 8 -1.125 4.9375 C-1.41375 3.968125 -1.7025 2.99875 -2 2 C-1.34 2 -0.68 2 0 2 C0 1.34 0 0.68 0 0 Z " fill="#072C46" transform="translate(84,38)"/>
<path d="M0 0 C0.66 0.33 1.32 0.66 2 1 C2 2.65 2 4.3 2 6 C0.02 6.99 0.02 6.99 -2 8 C-1.125 1.125 -1.125 1.125 0 0 Z " fill="#073259" transform="translate(148,154)"/>
<path d="M0 0 C1.32 0.33 2.64 0.66 4 1 C2.71034824 2.37562854 1.37310707 3.70766393 0 5 C-0.66 5 -1.32 5 -2 5 C-2.33 4.01 -2.66 3.02 -3 2 C-2.01 2 -1.02 2 0 2 C0 1.34 0 0.68 0 0 Z " fill="#23382A" transform="translate(151,161)"/>
<path d="M0 0 C0.66 0.33 1.32 0.66 2 1 C-3.14285714 5.42857143 -3.14285714 5.42857143 -7 6 C-6 3 -6 3 -3.0625 1.25 C-2.051875 0.8375 -1.04125 0.425 0 0 Z " fill="#D5C851" transform="translate(139,157)"/>
<path d="M0 0 C1.65 0 3.3 0 5 0 C4.34 1.98 3.68 3.96 3 6 C0 2.25 0 2.25 0 0 Z " fill="#394F61" transform="translate(91,44)"/>
</svg>
